<?xml version="1.0" encoding="utf-8"?>
<!-- Generator: Adobe Illustrator 14.0.0, SVG Export Plug-In  -->
<!DOCTYPE svg PUBLIC "-//W3C//DTD SVG 1.1//EN" "http://www.w3.org/Graphics/SVG/1.1/DTD/svg11.dtd" [
	<!ENTITY ns_flows "http://ns.adobe.com/Flows/1.0/">
]>
<svg version="1.1"
	 xmlns="http://www.w3.org/2000/svg" xmlns:xlink="http://www.w3.org/1999/xlink" xmlns:a="http://ns.adobe.com/AdobeSVGViewerExtensions/3.0/"
	 x="0px" y="0px" width="311px" height="311px" viewBox="-0.5 -0.5 311 311" enable-background="new -0.5 -0.5 311 311"
	 xml:space="preserve">
<defs>
</defs>
<rect fill="#19263B" width="310" height="310"/>
<polyline fill="none" stroke="#FFFFFF" stroke-width="16.8855" stroke-linecap="round" points="41.13,121.85 131.18,61.62 
	221.17,103.23 263.95,61.62 "/>
<rect x="178.63" y="48.01" fill="#219EBC" width="15.32" height="64.17"/>
<rect x="148.15" y="88.84" fill="#219EBC" width="15.32" height="39.86"/>
<rect x="117.66" y="30.51" fill="#219EBC" width="15.32" height="64.17"/>
<rect x="209.11" y="54.82" fill="#219EBC" width="15.33" height="39.86"/>
<rect x="87.18" y="60.17" fill="#219EBC" width="15.32" height="39.86"/>
<rect x="56.69" y="67.95" fill="#219EBC" width="15.33" height="64.17"/>
<rect x="239.59" y="48.01" fill="#219EBC" width="15.32" height="64.17"/>
<path fill="#FFFFFF" d="M66.49,228.43c-4.73,0-9.18-0.94-13.35-2.83c-4.17-1.88-7.83-4.49-11-7.82s-5.65-7.19-7.45-11.58
	c-1.8-4.38-2.7-9.08-2.7-14.08s0.9-9.69,2.7-14.07c1.8-4.38,4.28-8.24,7.45-11.58c3.17-3.33,6.83-5.94,11-7.82
	c4.17-1.88,8.62-2.83,13.35-2.83c4.77,0,9.23,0.94,13.4,2.83c4.17,1.88,7.83,4.49,11,7.82c3.17,3.33,5.64,7.19,7.42,11.58
	c1.78,4.38,2.68,9.07,2.68,14.07s-0.89,9.69-2.68,14.08c-1.78,4.38-4.26,8.24-7.42,11.58c-3.17,3.33-6.83,5.94-11,7.82
	C75.73,227.49,71.26,228.43,66.49,228.43z M66.49,216.23c3.07,0,5.95-0.63,8.65-1.9c2.7-1.27,5.07-3.01,7.12-5.23
	c2.05-2.21,3.65-4.77,4.8-7.67c1.15-2.9,1.73-6,1.73-9.3c0-3.3-0.58-6.41-1.75-9.32s-2.77-5.48-4.83-7.68
	c-2.05-2.2-4.42-3.93-7.1-5.2c-2.68-1.27-5.56-1.9-8.62-1.9c-3.07,0-5.95,0.63-8.65,1.9c-2.7,1.27-5.07,3.01-7.12,5.22
	c-2.05,2.22-3.65,4.78-4.8,7.67s-1.73,6-1.73,9.3c0,3.33,0.58,6.45,1.75,9.35c1.17,2.9,2.77,5.46,4.83,7.68
	c2.05,2.22,4.42,3.95,7.1,5.2C60.55,215.61,63.42,216.23,66.49,216.23z"/>
<path fill="#FFFFFF" d="M107.54,227.13l13.6-70h10.1l17.05,44.85l17.05-44.85h10.1l13.6,70h-12.45l-8.4-43.3l-15.75,41.7h-8.35
	l-15.75-41.7l-8.35,43.3H107.54z"/>
<path fill="#FFFFFF" d="M199.14,227.13v-70h25.5c3.7,0,7.04,0.76,10.02,2.28c2.98,1.52,5.35,3.68,7.1,6.5s2.62,6.14,2.62,9.97
	c0,1.7-0.25,3.42-0.75,5.15c-0.5,1.73-1.27,3.29-2.3,4.67s-2.37,2.41-4,3.08c2.17,0.53,3.93,1.5,5.3,2.9
	c1.37,1.4,2.43,3.04,3.2,4.92c0.77,1.88,1.29,3.8,1.58,5.75c0.28,1.95,0.42,3.76,0.42,5.43c0,3.7-0.92,7-2.75,9.9
	c-1.83,2.9-4.29,5.2-7.38,6.9c-3.08,1.7-6.49,2.55-10.22,2.55H199.14z M211.34,184.23h11.9c2.47,0,4.57-0.77,6.32-2.3
	c1.75-1.53,2.62-3.57,2.62-6.1c0-2.7-0.88-4.74-2.62-6.12s-3.86-2.08-6.32-2.08h-11.9V184.23z M211.34,216.68h14.9
	c2,0,3.8-0.48,5.4-1.45c1.6-0.96,2.88-2.3,3.85-4c0.97-1.7,1.45-3.63,1.45-5.8c0-1.87-0.48-3.63-1.45-5.3s-2.25-3.02-3.85-4.05
	c-1.6-1.03-3.4-1.55-5.4-1.55h-14.9V216.68z"/>
<path fill="#FFFFFF" d="M257.44,227.13v-70h12.2v70H257.44z"/>
<path fill="#FFFFFF" d="M44.45,247.39c2.56,0,4.67,0.86,6.32,2.57c1.61,1.66,2.42,3.74,2.42,6.24s-0.81,4.58-2.42,6.24
	c-1.65,1.72-3.75,2.57-6.32,2.57c-2.57,0-4.67-0.86-6.32-2.57c-1.61-1.66-2.42-3.74-2.42-6.24s0.81-4.58,2.42-6.24
	C39.78,248.25,41.88,247.39,44.45,247.39z M44.45,263.12c2.04,0,3.7-0.67,4.97-2c1.21-1.28,1.82-2.92,1.82-4.91
	c0-1.99-0.61-3.63-1.82-4.91c-1.27-1.33-2.92-2-4.97-2c-2.05,0-3.7,0.67-4.97,2c-1.21,1.28-1.82,2.92-1.82,4.91
	c0,1.99,0.61,3.63,1.82,4.91C40.75,262.46,42.4,263.12,44.45,263.12z"/>
<path fill="#FFFFFF" d="M58.25,264.81h-1.95V247.6h7.75c1.82,0,3.27,0.5,4.34,1.51c1.06,1,1.59,2.35,1.59,4.03
	c0,1.7-0.53,3.05-1.6,4.04c-1.07,1-2.51,1.5-4.33,1.5h-5.8V264.81z M58.25,249.45v7.41h5.67c1.35,0,2.38-0.33,3.07-0.99
	c0.69-0.66,1.04-1.56,1.04-2.72s-0.35-2.06-1.04-2.72c-0.69-0.66-1.72-0.99-3.07-0.99H58.25z"/>
<path fill="#FFFFFF" d="M86.54,247.6v17.21h-1.95v-7.67H74.58v7.67h-1.95V247.6h1.95v7.64h10.01v-7.64H86.54L86.54,247.6z"/>
<path fill="#FFFFFF" d="M102.98,249.47h-6.01v15.34h-1.95v-15.34h-6.01v-1.87h13.96V249.47z"/>
<path fill="#FFFFFF" d="M119.35,247.6v17.21h-1.95v-7.67h-10.01v7.67h-1.95V247.6h1.95v7.64h10.01v-7.64H119.35L119.35,247.6z"/>
<path fill="#FFFFFF" d="M138.59,264.81h-2.16l-2.11-4.99h-8.53l-2.11,4.99h-2.16l7.31-17.21h2.44L138.59,264.81z M133.58,258.03
	l-3.51-8.4l-3.51,8.4H133.58z"/>
<path fill="#FFFFFF" d="M142.73,247.6v15.34h9.39v1.87h-11.34V247.6H142.73z"/>
<path fill="#FFFFFF" d="M171.38,247.6v17.21h-1.95v-14.25l-6.37,8.19l-6.47-8.19v14.25h-1.95V247.6h2.26l6.16,8.16l6.06-8.16H171.38
	L171.38,247.6z"/>
<path fill="#FFFFFF" d="M177.54,249.47v5.77h9.57v1.9h-9.57v5.8h10.71v1.87h-12.66V247.6h12.66v1.87H177.54z"/>
<path fill="#FFFFFF" d="M203.62,249.47h-6.01v15.34h-1.95v-15.34h-6.01v-1.87h13.96V249.47z"/>
<path fill="#FFFFFF" d="M208.04,264.81h-1.95V247.6h8.24c1.75,0,3.15,0.48,4.21,1.46c1.06,0.95,1.59,2.26,1.59,3.93
	c0,2.15-0.89,3.62-2.68,4.39c-0.5,0.23-1,0.39-1.48,0.49l4.52,6.94h-2.31l-4.16-6.6h-5.98V264.81L208.04,264.81z M208.04,256.36
	h5.95c1.84,0,3.1-0.57,3.8-1.72c0.26-0.43,0.39-0.99,0.39-1.66c0-1.09-0.37-1.95-1.12-2.59c-0.75-0.63-1.73-0.95-2.96-0.95h-6.06
	V256.36z"/>
<path fill="#FFFFFF" d="M225.43,264.81h-1.95V247.6h1.95V264.81z"/>
<path fill="#FFFFFF" d="M236.69,255.92l6.86,8.89h-2.47l-5.59-7.38l-5.56,7.38h-2.47l6.86-8.89l-6.4-8.32h2.47l5.1,6.76l5.12-6.76
	h2.47L236.69,255.92z"/>
<path fill="#FFFFFF" d="M264.28,252.15c0,1.89-0.77,3.18-2.31,3.88c1.42,0.47,2.39,1.33,2.91,2.57c0.19,0.48,0.29,1.05,0.29,1.69
	c0,2.08-1.1,3.47-3.3,4.16c-0.73,0.24-1.59,0.36-2.57,0.36h-8.16V247.6h7.72c1.85,0,3.27,0.5,4.24,1.51
	C263.88,249.91,264.28,250.92,264.28,252.15z M253.07,255.3h5.77c1.59,0,2.66-0.55,3.2-1.64c0.19-0.38,0.29-0.79,0.29-1.24
	c0-0.44-0.06-0.83-0.18-1.17c-0.12-0.34-0.31-0.64-0.57-0.9c-0.57-0.61-1.41-0.91-2.52-0.91h-5.98V255.3z M259.49,262.97
	c1.2,0,2.12-0.25,2.76-0.74c0.64-0.49,0.96-1.19,0.96-2.09c0-0.87-0.31-1.58-0.94-2.13c-0.69-0.62-1.69-0.94-2.99-0.94h-6.21v5.9
	H259.49z"/>
<path fill="#FFFFFF" d="M270.28,264.81h-1.95V247.6h1.95V264.81z"/>
</svg>
